<?xml version="1.0" encoding="UTF-8"?>
<svg xmlns="http://www.w3.org/2000/svg" xmlns:xlink="http://www.w3.org/1999/xlink" width="375pt" height="374.999991pt" viewBox="0 0 375 374.999991" version="1.2">
<defs>
<clipPath id="clip1">
  <path d="M 167 128 L 229 128 L 229 337.5 L 167 337.5 Z M 167 128 "/>
</clipPath>
<clipPath id="clip2">
  <path d="M 38.53125 37.5 L 336 37.5 L 336 267 L 38.53125 267 Z M 38.53125 37.5 "/>
</clipPath>
</defs>
<g id="surface1">
<g clip-path="url(#clip1)" clip-rule="nonzero">
<path style=" stroke:none;fill-rule:nonzero;fill:rgb(63.139343%,52.159119%,0%);fill-opacity:1;" d="M 183.332031 130.160156 C 183.332031 130.160156 223.898438 173.316406 228.40625 261.3125 C 228.40625 316.597656 225.027344 330.980469 224.183594 334.082031 C 223.335938 337.1875 217.988281 337.1875 210.945312 337.46875 C 203.898438 337.75 189.8125 336.058594 186.433594 334.367188 C 191.785156 329.007812 211.847656 310.53125 207.28125 237.621094 C 202.773438 165.699219 177.699219 138.902344 169.53125 131.851562 C 161.359375 124.800781 183.332031 130.160156 183.332031 130.160156 Z M 183.332031 130.160156 "/>
</g>
<path style=" stroke:none;fill-rule:nonzero;fill:rgb(0%,74.899292%,41.569519%);fill-opacity:1;" d="M 296.304688 90.496094 C 296.304688 90.496094 289.015625 42.160156 231.753906 48.71875 C 202.066406 54.003906 181.429688 76.921875 171.5 92.363281 C 169.261719 82.886719 169.332031 71.105469 179.039062 65.832031 C 179.28125 65.703125 175.867188 59.875 180.1875 65.261719 C 180.28125 65.375 180.1875 65.261719 180.1875 65.261719 C 180.777344 64.992188 181.402344 64.746094 182.054688 64.519531 C 182.460938 64.382812 178.089844 58.957031 178.511719 59.082031 C 183.578125 60.5625 184.101562 63.917969 184.527344 63.824219 C 185.765625 63.542969 187.101562 63.335938 188.546875 63.207031 C 180.832031 51.574219 160.230469 47.957031 130.933594 69.597656 C 121.355469 78.824219 123.394531 92.1875 138.046875 104.035156 C 127.414062 101.917969 106.566406 92.714844 82.902344 106.253906 C 59.234375 119.792969 32.730469 146.625 56.171875 179.339844 C 56.171875 179.339844 52.632812 172.851562 56.488281 163.476562 C 56.660156 163.054688 54.800781 157.5625 55.007812 157.128906 C 55.207031 156.726562 57.628906 161.351562 57.863281 160.9375 C 58.558594 159.699219 58.714844 159.074219 59.765625 157.765625 C 60.019531 157.445312 57.230469 152.265625 58.179688 148.777344 C 58.3125 148.277344 61.503906 155.097656 61.875 154.699219 C 65.972656 150.363281 71.390625 144.082031 80.753906 139.484375 C 81.15625 139.285156 80.800781 134.585938 81.210938 134.390625 C 81.683594 134.164062 83.0625 136.617188 83.0625 136.617188 C 81.785156 137.203125 84.546875 124.621094 84.484375 124.976562 C 84.167969 126.976562 86.464844 136.847656 87.152344 136.554688 C 90.542969 135.101562 94.269531 133.65625 98.351562 132.230469 C 98.78125 132.078125 99.265625 128.191406 99.699219 128.042969 C 99.925781 127.96875 100.09375 131.628906 100.320312 131.550781 C 102.554688 130.792969 104.886719 130.042969 107.335938 129.292969 C 107.480469 129.25 108.320312 122.589844 108.464844 122.542969 C 109.140625 122.339844 109.125 128.75 109.816406 128.550781 C 111.183594 128.144531 112.589844 127.738281 114.03125 127.339844 C 114.539062 127.175781 115.046875 127.023438 115.542969 126.882812 C 116.207031 126.691406 116.488281 116.246094 117.128906 116.09375 C 117.878906 115.914062 119.050781 126.695312 119.769531 126.5625 C 130.664062 124.546875 137.960938 126.019531 142.800781 126.988281 C 134.875 131.324219 91.984375 141.582031 79.203125 186.535156 C 72.863281 224.082031 86.417969 254.261719 102.195312 271.75 C 102.082031 269.070312 101.703125 264.476562 102.441406 258.773438 C 102.535156 258.050781 96.203125 249.492188 96.316406 248.726562 C 96.421875 247.976562 103.570312 255.207031 103.695312 254.417969 C 104.84375 247.253906 106.710938 238.554688 109.566406 228.929688 C 109.738281 228.355469 104.660156 222.601562 105.507812 221.226562 C 105.84375 220.679688 110.472656 225.96875 110.671875 225.34375 C 111.070312 224.074219 111.488281 222.785156 111.925781 221.492188 C 112.292969 220.398438 105.535156 212.5 105.929688 211.390625 C 106.128906 210.828125 113.464844 217.058594 113.667969 216.492188 C 120.097656 198.746094 130.460938 179.859375 144.808594 161.253906 C 145.09375 160.882812 137.941406 146.976562 138.679688 145.179688 C 138.949219 146.253906 147.820312 157.523438 148.820312 156.601562 C 153.074219 152.703125 155.90625 149.050781 159.035156 145.984375 C 159.667969 145.359375 154.949219 135.449219 156.851562 134.707031 C 158.328125 136.929688 163.144531 143.375 163.824219 142.746094 C 174.773438 132.578125 176.710938 131.214844 209.144531 133.648438 C 209.871094 133.753906 210.660156 123.0625 211.46875 123.179688 C 213.234375 123.429688 214.058594 132.726562 215.15625 134.167969 C 223.882812 135.488281 235.539062 137.507812 248.734375 140.992188 C 249.164062 141.105469 251.507812 132.277344 251.507812 132.277344 C 252.191406 132.511719 252.121094 142.132812 252.492188 142.234375 C 252.902344 142.34375 257.015625 144.113281 257.425781 144.226562 C 259.53125 144.816406 257.976562 129.296875 259.21875 125.609375 C 261.648438 128.257812 264.1875 146.660156 264.1875 146.660156 C 277.960938 151.289062 294.527344 157.980469 308.875 166.648438 C 310.589844 167.6875 313.765625 153.570312 313 168.683594 C 312.953125 169.59375 314.664062 171.007812 315.421875 171.515625 C 316.28125 172.089844 317.628906 155.695312 317.992188 156.671875 C 321.019531 164.746094 319.449219 174.511719 320.28125 175.113281 C 320.996094 175.625 321.15625 175.535156 321.867188 176.066406 C 328.066406 182.832031 335.488281 189.394531 335.488281 189.394531 C 335.488281 189.394531 338.558594 147.296875 297.992188 113.449219 C 257.425781 79.601562 188.402344 109.289062 188.402344 109.289062 C 188.402344 109.289062 194.507812 100.574219 207.125 92.285156 C 207.757812 91.867188 204.675781 90.382812 205.34375 89.96875 C 205.675781 89.761719 206.847656 90.320312 207.195312 90.113281 C 207.359375 90.015625 202.851562 86.152344 203.757812 86.371094 C 208.511719 87.535156 210.902344 89.933594 211.054688 89.847656 C 221.9375 83.484375 239.886719 77.699219 255.949219 77.554688 C 256.75 77.550781 246.863281 65.1875 247.597656 65.535156 C 258.585938 70.71875 260.054688 77.554688 260.90625 77.574219 C 264.5 77.671875 268.234375 77.953125 272.109375 78.4375 C 273.378906 78.699219 274.558594 78.949219 275.675781 79.1875 C 276.460938 79.359375 275.613281 75.730469 276.335938 75.902344 C 276.6875 75.984375 278.632812 79.867188 278.96875 79.953125 C 280.378906 80.304688 281.667969 80.667969 282.886719 81.082031 C 283.429688 81.269531 281.082031 74.28125 281.511719 74.628906 C 285.949219 78.230469 286.445312 82.53125 287.390625 83.050781 C 290.28125 84.65625 293 86.921875 296.304688 90.496094 Z M 296.304688 90.496094 "/>
<g clip-path="url(#clip2)" clip-rule="nonzero">
<path style=" stroke:none;fill-rule:nonzero;fill:rgb(0%,45.489502%,33.329773%);fill-opacity:1;" d="M 296.554688 81.867188 C 296.554688 81.867188 289.601562 31.921875 230.460938 38.015625 C 199.777344 43.121094 178.226562 66.519531 167.800781 82.332031 C 165.601562 72.527344 165.8125 60.378906 175.886719 55.054688 C 176.136719 54.917969 172.683594 48.867188 177.078125 54.476562 C 177.171875 54.597656 177.078125 54.476562 177.078125 54.476562 C 177.691406 54.207031 178.335938 53.957031 179.011719 53.734375 C 179.429688 53.597656 174.988281 47.953125 175.417969 48.082031 C 180.632812 49.667969 181.132812 53.136719 181.566406 53.046875 C 182.851562 52.769531 184.230469 52.570312 185.726562 52.457031 C 177.90625 40.363281 156.695312 36.390625 126.222656 58.375 C 116.234375 67.78125 118.183594 81.585938 133.15625 93.976562 C 122.214844 91.667969 100.816406 81.933594 76.25 95.621094 C 51.683594 109.308594 24.03125 136.675781 47.828125 170.699219 C 47.828125 170.699219 44.253906 163.957031 48.339844 154.335938 C 48.523438 153.90625 46.664062 148.214844 46.886719 147.769531 C 47.097656 147.359375 49.542969 152.15625 49.789062 151.730469 C 50.519531 150.460938 50.683594 149.824219 51.785156 148.484375 C 52.054688 148.15625 49.234375 142.777344 50.253906 139.191406 C 50.398438 138.679688 53.609375 145.75 54 145.34375 C 58.273438 140.921875 63.9375 134.503906 73.652344 129.871094 C 74.066406 129.671875 73.753906 124.820312 74.175781 124.621094 C 74.671875 124.390625 76.0625 126.9375 76.0625 126.9375 C 74.738281 127.527344 77.730469 114.582031 77.667969 114.949219 C 77.3125 117.011719 79.570312 127.21875 80.285156 126.921875 C 83.796875 125.46875 87.660156 124.019531 91.886719 122.59375 C 92.332031 122.445312 92.875 118.441406 93.324219 118.292969 C 93.558594 118.21875 93.691406 121.996094 93.925781 121.917969 C 96.238281 121.164062 98.652344 120.414062 101.1875 119.671875 C 101.339844 119.628906 102.28125 112.769531 102.433594 112.722656 C 103.128906 112.519531 103.039062 119.132812 103.757812 118.933594 C 105.175781 118.53125 106.628906 118.132812 108.113281 117.734375 C 108.644531 117.570312 109.164062 117.421875 109.679688 117.28125 C 110.371094 117.09375 110.78125 106.316406 111.441406 106.171875 C 112.21875 105.992188 113.300781 117.128906 114.042969 117 C 125.304688 115.050781 132.816406 116.652344 137.796875 117.707031 C 129.570312 122.089844 85.210938 132.167969 71.5 178.382812 C 64.523438 217.039062 78.152344 248.328125 94.222656 266.550781 C 94.136719 263.785156 93.800781 259.042969 94.628906 253.171875 C 94.734375 252.425781 88.300781 243.523438 88.429688 242.734375 C 88.550781 241.960938 95.835938 249.5 95.976562 248.691406 C 97.238281 241.316406 99.269531 232.363281 102.328125 222.472656 C 102.511719 221.878906 97.339844 215.886719 98.230469 214.476562 C 98.585938 213.917969 103.296875 219.425781 103.507812 218.785156 C 103.933594 217.480469 104.382812 216.160156 104.847656 214.824219 C 105.238281 213.703125 98.363281 205.476562 98.78125 204.335938 C 98.992188 203.757812 106.484375 210.269531 106.699219 209.691406 C 113.542969 191.460938 124.449219 172.097656 139.464844 153.078125 C 139.765625 152.699219 132.550781 138.269531 133.332031 136.421875 C 133.601562 137.535156 142.613281 149.265625 143.664062 148.328125 C 148.09375 144.351562 151.058594 140.621094 154.324219 137.492188 C 154.980469 136.855469 150.226562 126.578125 152.199219 125.835938 C 153.699219 128.144531 158.589844 134.851562 159.292969 134.210938 C 170.707031 123.851562 172.726562 122.464844 206.152344 125.355469 C 206.898438 125.472656 207.835938 114.453125 208.667969 114.582031 C 210.484375 114.863281 211.230469 124.460938 212.34375 125.957031 C 221.332031 127.425781 233.332031 129.644531 246.902344 133.390625 C 247.34375 133.511719 249.863281 124.433594 249.863281 124.433594 C 250.566406 124.6875 250.378906 134.613281 250.761719 134.71875 C 251.183594 134.839844 255.40625 136.707031 255.828125 136.828125 C 257.992188 137.464844 256.574219 121.4375 257.898438 117.648438 C 260.371094 120.40625 262.773438 139.421875 262.773438 139.421875 C 276.925781 144.351562 293.941406 151.449219 308.632812 160.5625 C 310.394531 161.652344 313.832031 147.128906 312.867188 162.707031 C 312.808594 163.644531 314.554688 165.121094 315.335938 165.65625 C 316.210938 166.257812 317.792969 149.363281 318.15625 150.378906 C 321.1875 158.738281 319.453125 168.792969 320.304688 169.421875 C 321.035156 169.964844 321.199219 169.871094 321.925781 170.421875 C 328.238281 177.476562 335.824219 184.332031 335.824219 184.332031 C 335.824219 184.332031 339.480469 140.945312 298.03125 105.558594 C 256.582031 70.167969 185.039062 99.984375 185.039062 99.984375 C 185.039062 99.984375 191.4375 91.066406 204.550781 82.664062 C 205.207031 82.238281 202.046875 80.671875 202.738281 80.253906 C 203.089844 80.042969 204.285156 80.636719 204.648438 80.425781 C 204.820312 80.324219 200.214844 76.285156 201.144531 76.523438 C 206.035156 77.78125 208.476562 80.285156 208.632812 80.191406 C 219.933594 73.757812 238.511719 68 255.082031 68.042969 C 255.910156 68.046875 245.855469 55.179688 246.613281 55.542969 C 257.882812 61.019531 259.320312 68.085938 260.195312 68.121094 C 263.90625 68.261719 267.75 68.59375 271.746094 69.140625 C 273.046875 69.425781 274.261719 69.695312 275.414062 69.957031 C 276.222656 70.144531 275.394531 66.390625 276.132812 66.574219 C 276.488281 66.660156 278.453125 70.691406 278.800781 70.785156 C 280.25 71.160156 281.578125 71.554688 282.828125 71.996094 C 283.386719 72.191406 281.042969 64.960938 281.488281 65.324219 C 286.019531 69.085938 286.480469 73.53125 287.449219 74.074219 C 290.414062 75.769531 293.1875 78.140625 296.554688 81.867188 Z M 296.554688 81.867188 "/>
</g>
</g>
</svg>
