<?xml version="1.0" encoding="UTF-8"?>
<svg xmlns="http://www.w3.org/2000/svg" xmlns:xlink="http://www.w3.org/1999/xlink" width="375pt" height="374.999991pt" viewBox="0 0 375 374.999991" version="1.2">
<defs>
<clipPath id="clip1">
  <path d="M 176 156 L 209 156 L 209 266.515625 L 176 266.515625 Z M 176 156 "/>
</clipPath>
<clipPath id="clip2">
  <path d="M 113 114 L 265.394531 114 L 265.394531 232 L 113 232 Z M 113 114 "/>
</clipPath>
<clipPath id="clip3">
  <path d="M 109.117188 108.625 L 265.394531 108.625 L 265.394531 230 L 109.117188 230 Z M 109.117188 108.625 "/>
</clipPath>
</defs>
<g id="surface1">
<path style=" stroke:none;fill-rule:nonzero;fill:rgb(5.879211%,46.269226%,95.289612%);fill-opacity:1;" d="M 187.574219 212.824219 L 187.574219 190.078125 L 61.503906 190.078125 L 61.503906 260.878906 L 187.574219 260.878906 Z M 61.503906 260.878906 L 187.574219 337.164062 L 187.574219 260.878906 Z M 61.503906 113.792969 L 187.574219 113.792969 L 187.574219 190.078125 L 61.503906 190.078125 Z M 61.503906 113.792969 "/>
<path style=" stroke:none;fill-rule:nonzero;fill:rgb(5.879211%,46.269226%,95.289612%);fill-opacity:1;" d="M 187.574219 190.078125 L 187.574219 260.878906 L 313.648438 260.878906 L 313.648438 190.078125 Z M 187.574219 113.792969 L 313.648438 113.792969 L 313.648438 190.078125 L 187.574219 190.078125 Z M 187.574219 337.164062 L 313.648438 260.878906 L 187.574219 260.878906 Z M 187.574219 337.164062 "/>
<path style=" stroke:none;fill-rule:nonzero;fill:rgb(5.879211%,46.269226%,95.289612%);fill-opacity:1;" d="M 187.574219 190.078125 L 61.503906 113.792969 L 187.574219 37.503906 L 313.648438 113.792969 Z M 187.574219 190.078125 "/>
<path style=" stroke:none;fill-rule:nonzero;fill:rgb(5.879211%,46.269226%,95.289612%);fill-opacity:1;" d="M 187.3125 162.175781 L 187.3125 184.921875 L 313.382812 184.921875 L 313.382812 114.117188 L 187.3125 114.117188 Z M 313.382812 114.117188 L 187.3125 37.832031 L 187.3125 114.117188 Z M 313.382812 261.207031 L 187.3125 261.207031 L 187.3125 184.921875 L 313.382812 184.921875 Z M 313.382812 261.207031 "/>
<path style=" stroke:none;fill-rule:nonzero;fill:rgb(5.879211%,46.269226%,95.289612%);fill-opacity:1;" d="M 187.3125 184.921875 L 187.3125 114.117188 L 61.242188 114.117188 L 61.242188 184.921875 Z M 187.3125 261.207031 L 61.242188 261.207031 L 61.242188 184.921875 L 187.3125 184.921875 Z M 187.3125 37.832031 L 61.242188 114.117188 L 187.3125 114.117188 Z M 187.3125 37.832031 "/>
<path style=" stroke:none;fill-rule:nonzero;fill:rgb(5.879211%,46.269226%,95.289612%);fill-opacity:1;" d="M 187.3125 184.921875 L 313.382812 261.207031 L 187.3125 337.492188 L 61.242188 261.207031 Z M 187.3125 184.921875 "/>
<g clip-path="url(#clip1)" clip-rule="nonzero">
<path style=" stroke:none;fill-rule:nonzero;fill:rgb(98.81897%,99.21875%,99.21875%);fill-opacity:1;" d="M 185.164062 157.390625 C 185.164062 157.390625 206.464844 180.105469 208.832031 226.417969 C 208.832031 255.511719 207.058594 263.082031 206.613281 264.71875 C 206.171875 266.351562 203.363281 266.351562 199.664062 266.5 C 195.960938 266.648438 188.566406 265.757812 186.789062 264.867188 C 189.601562 262.046875 200.136719 252.320312 197.738281 213.949219 C 195.371094 176.09375 182.203125 161.992188 177.914062 158.28125 C 173.621094 154.570312 185.164062 157.390625 185.164062 157.390625 Z M 185.164062 157.390625 "/>
</g>
<g clip-path="url(#clip2)" clip-rule="nonzero">
<path style=" stroke:none;fill-rule:nonzero;fill:rgb(85.099792%,85.099792%,85.099792%);fill-opacity:1;" d="M 244.488281 136.515625 C 244.488281 136.515625 240.660156 111.074219 210.589844 114.527344 C 195 117.3125 184.164062 129.371094 178.949219 137.5 C 177.773438 132.511719 177.808594 126.3125 182.90625 123.535156 C 183.035156 123.464844 181.242188 120.402344 183.511719 123.234375 C 183.558594 123.296875 183.511719 123.234375 183.511719 123.234375 C 183.820312 123.09375 184.148438 122.964844 184.492188 122.84375 C 184.703125 122.773438 182.410156 119.917969 182.628906 119.984375 C 185.292969 120.761719 185.566406 122.527344 185.789062 122.476562 C 186.441406 122.332031 187.140625 122.222656 187.898438 122.152344 C 183.851562 116.03125 173.03125 114.128906 157.644531 125.515625 C 152.613281 130.375 153.6875 137.40625 161.378906 143.640625 C 155.796875 142.527344 144.847656 137.683594 132.421875 144.808594 C 119.992188 151.9375 106.074219 166.058594 118.382812 183.277344 C 118.382812 183.277344 116.527344 179.859375 118.550781 174.925781 C 118.640625 174.703125 117.664062 171.8125 117.773438 171.585938 C 117.878906 171.375 119.148438 173.808594 119.273438 173.589844 C 119.636719 172.9375 119.71875 172.609375 120.269531 171.921875 C 120.40625 171.75 118.9375 169.027344 119.4375 167.1875 C 119.507812 166.925781 121.183594 170.515625 121.378906 170.304688 C 123.53125 168.023438 126.375 164.71875 131.292969 162.300781 C 131.503906 162.195312 131.316406 159.722656 131.53125 159.617188 C 131.78125 159.496094 132.503906 160.789062 132.503906 160.789062 C 131.835938 161.097656 133.285156 154.476562 133.253906 154.664062 C 133.085938 155.714844 134.292969 160.910156 134.652344 160.757812 C 136.433594 159.992188 138.390625 159.230469 140.535156 158.480469 C 140.757812 158.402344 141.015625 156.355469 141.242188 156.277344 C 141.363281 156.238281 141.449219 158.164062 141.570312 158.125 C 142.742188 157.726562 143.964844 157.328125 145.253906 156.9375 C 145.328125 156.910156 145.769531 153.40625 145.847656 153.382812 C 146.199219 153.273438 146.191406 156.648438 146.554688 156.542969 C 147.273438 156.332031 148.011719 156.117188 148.769531 155.90625 C 149.035156 155.820312 149.300781 155.742188 149.5625 155.667969 C 149.910156 155.566406 150.058594 150.066406 150.394531 149.988281 C 150.789062 149.894531 151.402344 155.570312 151.78125 155.5 C 157.503906 154.4375 161.335938 155.210938 163.878906 155.722656 C 159.714844 158.003906 137.191406 163.402344 130.476562 187.0625 C 127.148438 206.824219 134.269531 222.707031 142.554688 231.910156 C 142.492188 230.5 142.296875 228.082031 142.683594 225.082031 C 142.730469 224.699219 139.40625 220.195312 139.464844 219.792969 C 139.523438 219.398438 143.277344 223.203125 143.339844 222.789062 C 143.945312 219.019531 144.925781 214.4375 146.425781 209.375 C 146.515625 209.070312 143.847656 206.042969 144.292969 205.320312 C 144.46875 205.03125 146.898438 207.816406 147.003906 207.488281 C 147.214844 206.816406 147.433594 206.140625 147.664062 205.457031 C 147.855469 204.882812 144.308594 200.726562 144.515625 200.144531 C 144.617188 199.847656 148.46875 203.125 148.578125 202.828125 C 151.957031 193.488281 157.394531 183.546875 164.929688 173.757812 C 165.082031 173.5625 161.324219 166.242188 161.710938 165.296875 C 161.855469 165.859375 166.511719 171.792969 167.039062 171.308594 C 169.269531 169.253906 170.757812 167.335938 172.402344 165.71875 C 172.734375 165.390625 170.257812 160.175781 171.257812 159.785156 C 172.03125 160.953125 174.5625 164.347656 174.917969 164.015625 C 180.667969 158.664062 181.6875 157.949219 198.71875 159.226562 C 199.097656 159.28125 199.515625 153.65625 199.9375 153.71875 C 200.863281 153.847656 201.296875 158.742188 201.875 159.5 C 206.457031 160.195312 212.578125 161.257812 219.507812 163.09375 C 219.734375 163.152344 220.964844 158.503906 220.964844 158.503906 C 221.324219 158.628906 221.285156 163.695312 221.480469 163.746094 C 221.699219 163.804688 223.855469 164.734375 224.074219 164.792969 C 225.179688 165.105469 224.363281 156.9375 225.015625 154.996094 C 226.289062 156.390625 227.621094 166.074219 227.621094 166.074219 C 234.855469 168.511719 243.558594 172.03125 251.089844 176.597656 C 251.992188 177.140625 253.660156 169.710938 253.257812 177.667969 C 253.234375 178.144531 254.132812 178.890625 254.53125 179.15625 C 254.980469 179.460938 255.6875 170.832031 255.878906 171.34375 C 257.46875 175.59375 256.644531 180.734375 257.082031 181.050781 C 257.457031 181.320312 257.539062 181.273438 257.914062 181.550781 C 261.167969 185.113281 265.066406 188.566406 265.066406 188.566406 C 265.066406 188.566406 266.679688 166.410156 245.375 148.597656 C 224.074219 130.78125 187.824219 146.40625 187.824219 146.40625 C 187.824219 146.40625 191.03125 141.820312 197.65625 137.457031 C 197.988281 137.238281 196.371094 136.457031 196.722656 136.238281 C 196.898438 136.128906 197.511719 136.425781 197.691406 136.316406 C 197.78125 136.261719 195.414062 134.230469 195.886719 134.34375 C 198.382812 134.957031 199.640625 136.222656 199.71875 136.175781 C 205.4375 132.824219 214.859375 129.78125 223.296875 129.707031 C 223.71875 129.703125 218.523438 123.195312 218.910156 123.378906 C 224.679688 126.105469 225.453125 129.703125 225.898438 129.714844 C 227.789062 129.765625 229.75 129.914062 231.785156 130.171875 C 232.449219 130.308594 233.070312 130.4375 233.65625 130.566406 C 234.070312 130.65625 233.625 128.746094 234.003906 128.835938 C 234.1875 128.878906 235.207031 130.921875 235.386719 130.96875 C 236.125 131.152344 236.804688 131.34375 237.441406 131.5625 C 237.726562 131.660156 236.496094 127.984375 236.722656 128.167969 C 239.050781 130.058594 239.3125 132.324219 239.808594 132.597656 C 241.328125 133.441406 242.753906 134.636719 244.488281 136.515625 Z M 244.488281 136.515625 "/>
</g>
<g clip-path="url(#clip3)" clip-rule="nonzero">
<path style=" stroke:none;fill-rule:nonzero;fill:rgb(98.81897%,99.21875%,99.21875%);fill-opacity:1;" d="M 244.621094 131.972656 C 244.621094 131.972656 240.96875 105.6875 209.910156 108.894531 C 193.800781 111.582031 182.480469 123.898438 177.007812 132.21875 C 175.851562 127.058594 175.960938 120.664062 181.25 117.863281 C 181.382812 117.792969 179.570312 114.609375 181.878906 117.558594 C 181.925781 117.621094 181.878906 117.558594 181.878906 117.558594 C 182.199219 117.417969 182.539062 117.285156 182.894531 117.167969 C 183.113281 117.097656 180.78125 114.125 181.007812 114.195312 C 183.746094 115.027344 184.007812 116.855469 184.234375 116.804688 C 184.910156 116.660156 185.636719 116.554688 186.417969 116.496094 C 182.3125 110.128906 171.175781 108.042969 155.171875 119.609375 C 149.925781 124.5625 150.949219 131.828125 158.8125 138.347656 C 153.066406 137.132812 141.828125 132.011719 128.929688 139.214844 C 116.027344 146.417969 101.503906 160.820312 114 178.726562 C 114 178.726562 112.125 175.179688 114.273438 170.117188 C 114.367188 169.886719 113.390625 166.894531 113.507812 166.660156 C 113.617188 166.441406 114.902344 168.96875 115.03125 168.746094 C 115.414062 168.078125 115.503906 167.738281 116.082031 167.035156 C 116.222656 166.863281 114.742188 164.03125 115.277344 162.144531 C 115.351562 161.875 117.039062 165.597656 117.242188 165.382812 C 119.488281 163.054688 122.460938 159.679688 127.5625 157.238281 C 127.78125 157.132812 127.617188 154.582031 127.839844 154.476562 C 128.097656 154.355469 128.828125 155.695312 128.828125 155.695312 C 128.132812 156.007812 129.707031 149.191406 129.671875 149.386719 C 129.484375 150.472656 130.671875 155.84375 131.046875 155.6875 C 132.890625 154.921875 134.921875 154.160156 137.140625 153.410156 C 137.371094 153.332031 137.660156 151.222656 137.894531 151.144531 C 138.015625 151.105469 138.085938 153.09375 138.210938 153.054688 C 139.425781 152.65625 140.691406 152.261719 142.023438 151.871094 C 142.105469 151.847656 142.597656 148.238281 142.679688 148.214844 C 143.042969 148.105469 142.996094 151.585938 143.375 151.480469 C 144.117188 151.269531 144.878906 151.058594 145.660156 150.851562 C 145.941406 150.765625 146.214844 150.6875 146.484375 150.613281 C 146.847656 150.515625 147.0625 144.84375 147.410156 144.765625 C 147.816406 144.671875 148.386719 150.53125 148.777344 150.464844 C 154.691406 149.4375 158.632812 150.28125 161.25 150.835938 C 156.929688 153.144531 133.632812 158.449219 126.433594 182.773438 C 122.769531 203.117188 129.925781 219.585938 138.367188 229.175781 C 138.320312 227.71875 138.144531 225.222656 138.582031 222.132812 C 138.636719 221.738281 135.257812 217.054688 135.324219 216.640625 C 135.386719 216.230469 139.210938 220.199219 139.289062 219.773438 C 139.949219 215.894531 141.015625 211.179688 142.621094 205.976562 C 142.71875 205.664062 140.003906 202.507812 140.472656 201.769531 C 140.65625 201.472656 143.132812 204.371094 143.242188 204.035156 C 143.464844 203.347656 143.703125 202.652344 143.945312 201.949219 C 144.148438 201.359375 140.539062 197.03125 140.761719 196.429688 C 140.871094 196.125 144.804688 199.554688 144.917969 199.25 C 148.511719 189.652344 154.238281 179.464844 162.125 169.453125 C 162.285156 169.253906 158.492188 161.660156 158.90625 160.6875 C 159.046875 161.273438 163.777344 167.445312 164.328125 166.953125 C 166.65625 164.859375 168.214844 162.894531 169.929688 161.25 C 170.273438 160.914062 167.777344 155.507812 168.8125 155.113281 C 169.601562 156.332031 172.167969 159.859375 172.539062 159.523438 C 178.53125 154.070312 179.59375 153.34375 197.144531 154.863281 C 197.539062 154.925781 198.03125 149.125 198.46875 149.191406 C 199.421875 149.339844 199.8125 154.390625 200.398438 155.179688 C 205.117188 155.953125 211.417969 157.121094 218.546875 159.09375 C 218.777344 159.15625 220.101562 154.378906 220.101562 154.378906 C 220.46875 154.511719 220.371094 159.734375 220.574219 159.789062 C 220.796875 159.855469 223.011719 160.835938 223.234375 160.902344 C 224.371094 161.234375 223.625 152.800781 224.320312 150.808594 C 225.621094 152.257812 226.882812 162.265625 226.882812 162.265625 C 234.3125 164.863281 243.25 168.597656 250.964844 173.390625 C 251.886719 173.964844 253.695312 166.320312 253.1875 174.519531 C 253.15625 175.015625 254.074219 175.792969 254.484375 176.074219 C 254.945312 176.390625 255.773438 167.5 255.964844 168.03125 C 257.558594 172.433594 256.648438 177.722656 257.09375 178.054688 C 257.476562 178.339844 257.5625 178.289062 257.945312 178.582031 C 261.261719 182.292969 265.242188 185.902344 265.242188 185.902344 C 265.242188 185.902344 267.164062 163.066406 245.394531 144.441406 C 223.628906 125.816406 186.058594 141.507812 186.058594 141.507812 C 186.058594 141.507812 189.417969 136.816406 196.304688 132.394531 C 196.652344 132.171875 194.992188 131.34375 195.355469 131.125 C 195.539062 131.015625 196.167969 131.324219 196.355469 131.214844 C 196.445312 131.164062 194.027344 129.039062 194.515625 129.164062 C 197.085938 129.824219 198.367188 131.140625 198.449219 131.09375 C 204.382812 127.707031 214.140625 124.675781 222.84375 124.699219 C 223.277344 124.699219 217.996094 117.929688 218.394531 118.121094 C 224.3125 121.003906 225.066406 124.722656 225.527344 124.738281 C 227.476562 124.8125 229.496094 124.988281 231.59375 125.277344 C 232.277344 125.425781 232.914062 125.570312 233.519531 125.707031 C 233.945312 125.804688 233.507812 123.828125 233.894531 123.925781 C 234.085938 123.972656 235.117188 126.09375 235.296875 126.144531 C 236.058594 126.339844 236.757812 126.546875 237.414062 126.78125 C 237.707031 126.882812 236.476562 123.078125 236.707031 123.265625 C 239.089844 125.25 239.332031 127.585938 239.839844 127.875 C 241.394531 128.765625 242.851562 130.015625 244.621094 131.972656 Z M 244.621094 131.972656 "/>
</g>
</g>
</svg>
