<?xml version="1.0" encoding="UTF-8"?>
<svg xmlns="http://www.w3.org/2000/svg" xmlns:xlink="http://www.w3.org/1999/xlink" width="375pt" height="374.999991pt" viewBox="0 0 375 374.999991" version="1.2">
<defs>
<clipPath id="clip1">
  <path d="M 174 148 L 215 148 L 215 286.269531 L 174 286.269531 Z M 174 148 "/>
</clipPath>
<clipPath id="clip2">
  <path d="M 95 95 L 284.882812 95 L 284.882812 244 L 95 244 Z M 95 95 "/>
</clipPath>
<clipPath id="clip3">
  <path d="M 89.53125 88.90625 L 284.882812 88.90625 L 284.882812 240 L 89.53125 240 Z M 89.53125 88.90625 "/>
</clipPath>
</defs>
<g id="surface1">
<path style=" stroke:none;fill-rule:nonzero;fill:rgb(5.879211%,46.269226%,95.289612%);fill-opacity:1;" d="M 187.605469 219.152344 L 187.605469 190.722656 L 30.019531 190.722656 L 30.019531 279.222656 L 187.605469 279.222656 Z M 30.019531 279.222656 L 187.605469 374.582031 L 187.605469 279.222656 Z M 30.019531 95.363281 L 187.605469 95.363281 L 187.605469 190.722656 L 30.019531 190.722656 Z M 30.019531 95.363281 "/>
<path style=" stroke:none;fill-rule:nonzero;fill:rgb(5.879211%,46.269226%,95.289612%);fill-opacity:1;" d="M 187.605469 190.722656 L 187.605469 279.222656 L 345.195312 279.222656 L 345.195312 190.722656 Z M 187.605469 95.363281 L 345.195312 95.363281 L 345.195312 190.722656 L 187.605469 190.722656 Z M 187.605469 374.582031 L 345.195312 279.222656 L 187.605469 279.222656 Z M 187.605469 374.582031 "/>
<path style=" stroke:none;fill-rule:nonzero;fill:rgb(5.879211%,46.269226%,95.289612%);fill-opacity:1;" d="M 187.605469 190.722656 L 30.019531 95.363281 L 187.605469 0.0078125 L 345.195312 95.363281 Z M 187.605469 190.722656 "/>
<path style=" stroke:none;fill-rule:nonzero;fill:rgb(5.879211%,46.269226%,95.289612%);fill-opacity:1;" d="M 187.277344 155.84375 L 187.277344 184.273438 L 344.867188 184.273438 L 344.867188 95.773438 L 187.277344 95.773438 Z M 344.867188 95.773438 L 187.277344 0.417969 L 187.277344 95.773438 Z M 344.867188 279.632812 L 187.277344 279.632812 L 187.277344 184.273438 L 344.867188 184.273438 Z M 344.867188 279.632812 "/>
<path style=" stroke:none;fill-rule:nonzero;fill:rgb(5.879211%,46.269226%,95.289612%);fill-opacity:1;" d="M 187.277344 184.273438 L 187.277344 95.773438 L 29.6875 95.773438 L 29.6875 184.273438 Z M 187.277344 279.632812 L 29.6875 279.632812 L 29.6875 184.273438 L 187.277344 184.273438 Z M 187.277344 0.417969 L 29.6875 95.773438 L 187.277344 95.773438 Z M 187.277344 0.417969 "/>
<path style=" stroke:none;fill-rule:nonzero;fill:rgb(5.879211%,46.269226%,95.289612%);fill-opacity:1;" d="M 187.277344 184.273438 L 344.867188 279.632812 L 187.277344 374.988281 L 29.6875 279.632812 Z M 187.277344 184.273438 "/>
<g clip-path="url(#clip1)" clip-rule="nonzero">
<path style=" stroke:none;fill-rule:nonzero;fill:rgb(98.81897%,99.21875%,99.21875%);fill-opacity:1;" d="M 184.589844 149.863281 C 184.589844 149.863281 211.21875 178.253906 214.179688 236.148438 C 214.179688 272.515625 211.960938 281.980469 211.40625 284.019531 C 210.851562 286.0625 207.339844 286.0625 202.714844 286.25 C 198.089844 286.433594 188.84375 285.320312 186.625 284.207031 C 190.140625 280.679688 203.308594 268.523438 200.308594 220.5625 C 197.351562 173.242188 180.894531 155.617188 175.53125 150.976562 C 170.167969 146.339844 184.589844 149.863281 184.589844 149.863281 Z M 184.589844 149.863281 "/>
</g>
<g clip-path="url(#clip2)" clip-rule="nonzero">
<path style=" stroke:none;fill-rule:nonzero;fill:rgb(85.099792%,85.099792%,85.099792%);fill-opacity:1;" d="M 258.75 123.769531 C 258.75 123.769531 253.964844 91.96875 216.375 96.285156 C 196.890625 99.761719 183.34375 114.839844 176.824219 125 C 175.351562 118.765625 175.402344 111.015625 181.773438 107.542969 C 181.929688 107.457031 179.691406 103.625 182.523438 107.167969 C 182.585938 107.242188 182.523438 107.167969 182.523438 107.167969 C 182.914062 106.992188 183.324219 106.828125 183.753906 106.679688 C 184.019531 106.589844 181.148438 103.019531 181.425781 103.101562 C 184.753906 104.078125 185.09375 106.285156 185.375 106.222656 C 186.1875 106.039062 187.066406 105.902344 188.011719 105.816406 C 182.949219 98.164062 169.425781 95.785156 150.195312 110.019531 C 143.90625 116.09375 145.246094 124.882812 154.863281 132.675781 C 147.882812 131.285156 134.199219 125.230469 118.664062 134.136719 C 103.128906 143.046875 85.730469 160.695312 101.117188 182.21875 C 101.117188 182.21875 98.796875 177.949219 101.324219 171.78125 C 101.4375 171.503906 100.214844 167.890625 100.355469 167.605469 C 100.484375 167.34375 102.074219 170.382812 102.226562 170.113281 C 102.683594 169.296875 102.785156 168.886719 103.476562 168.023438 C 103.644531 167.816406 101.8125 164.40625 102.4375 162.109375 C 102.523438 161.78125 104.617188 166.269531 104.863281 166.007812 C 107.550781 163.15625 111.105469 159.023438 117.253906 156 C 117.519531 155.867188 117.285156 152.777344 117.554688 152.648438 C 117.867188 152.496094 118.769531 154.113281 118.769531 154.113281 C 117.929688 154.5 119.742188 146.21875 119.703125 146.453125 C 119.492188 147.769531 121.003906 154.261719 121.453125 154.070312 C 123.679688 153.117188 126.125 152.164062 128.808594 151.226562 C 129.085938 151.128906 129.40625 148.570312 129.691406 148.472656 C 129.839844 148.421875 129.949219 150.828125 130.097656 150.78125 C 131.5625 150.28125 133.09375 149.785156 134.703125 149.292969 C 134.796875 149.265625 135.347656 144.882812 135.445312 144.855469 C 135.886719 144.71875 135.878906 148.9375 136.332031 148.804688 C 137.230469 148.539062 138.152344 148.273438 139.097656 148.011719 C 139.433594 147.902344 139.765625 147.800781 140.089844 147.707031 C 140.527344 147.582031 140.710938 140.710938 141.132812 140.609375 C 141.625 140.492188 142.390625 147.585938 142.867188 147.5 C 150.015625 146.171875 154.808594 147.140625 157.984375 147.777344 C 152.78125 150.628906 124.625 157.378906 116.234375 186.953125 C 112.074219 211.652344 120.972656 231.507812 131.328125 243.015625 C 131.253906 241.25 131.007812 238.230469 131.492188 234.476562 C 131.554688 234 127.394531 228.371094 127.46875 227.867188 C 127.539062 227.371094 132.230469 232.128906 132.3125 231.613281 C 133.066406 226.898438 134.292969 221.171875 136.167969 214.84375 C 136.28125 214.464844 132.945312 210.679688 133.503906 209.773438 C 133.722656 209.414062 136.761719 212.894531 136.890625 212.484375 C 137.15625 211.648438 137.429688 210.800781 137.714844 209.949219 C 137.957031 209.230469 133.523438 204.035156 133.78125 203.304688 C 133.910156 202.933594 138.726562 207.03125 138.859375 206.660156 C 143.082031 194.984375 149.882812 182.558594 159.300781 170.320312 C 159.488281 170.078125 154.792969 160.929688 155.277344 159.746094 C 155.457031 160.453125 161.277344 167.867188 161.9375 167.257812 C 164.726562 164.695312 166.585938 162.292969 168.640625 160.273438 C 169.058594 159.863281 165.957031 153.34375 167.207031 152.855469 C 168.175781 154.316406 171.339844 158.558594 171.785156 158.144531 C 178.972656 151.457031 180.246094 150.558594 201.535156 152.160156 C 202.011719 152.230469 202.53125 145.195312 203.058594 145.269531 C 204.21875 145.4375 204.761719 151.550781 205.480469 152.5 C 211.207031 153.367188 218.859375 154.699219 227.523438 156.992188 C 227.804688 157.0625 229.34375 151.257812 229.34375 151.257812 C 229.792969 151.414062 229.746094 157.742188 229.988281 157.808594 C 230.257812 157.882812 232.957031 159.042969 233.226562 159.117188 C 234.609375 159.503906 233.589844 149.296875 234.40625 146.871094 C 236 148.613281 237.664062 160.71875 237.664062 160.71875 C 246.707031 163.765625 257.585938 168.167969 267 173.871094 C 268.128906 174.550781 270.210938 165.265625 269.710938 175.207031 C 269.679688 175.804688 270.800781 176.738281 271.300781 177.070312 C 271.863281 177.449219 272.746094 166.664062 272.988281 167.308594 C 274.976562 172.617188 273.945312 179.039062 274.492188 179.4375 C 274.957031 179.777344 275.0625 179.714844 275.53125 180.0625 C 279.597656 184.515625 284.472656 188.832031 284.472656 188.832031 C 284.472656 188.832031 286.488281 161.136719 259.855469 138.871094 C 233.226562 116.601562 187.917969 136.132812 187.917969 136.132812 C 187.917969 136.132812 191.925781 130.402344 200.210938 124.945312 C 200.625 124.671875 198.601562 123.695312 199.039062 123.421875 C 199.257812 123.285156 200.027344 123.65625 200.253906 123.519531 C 200.363281 123.453125 197.402344 120.910156 198 121.058594 C 201.117188 121.820312 202.6875 123.402344 202.789062 123.34375 C 209.933594 119.15625 221.714844 115.351562 232.257812 115.257812 C 232.785156 115.253906 226.292969 107.121094 226.777344 107.347656 C 233.988281 110.757812 234.953125 115.253906 235.511719 115.269531 C 237.871094 115.332031 240.324219 115.515625 242.867188 115.839844 C 243.699219 116.007812 244.472656 116.171875 245.207031 116.332031 C 245.726562 116.445312 245.167969 114.054688 245.640625 114.167969 C 245.871094 114.222656 247.148438 116.777344 247.371094 116.835938 C 248.296875 117.0625 249.144531 117.304688 249.941406 117.578125 C 250.296875 117.699219 248.757812 113.101562 249.039062 113.332031 C 251.953125 115.699219 252.277344 118.53125 252.898438 118.871094 C 254.796875 119.925781 256.578125 121.417969 258.75 123.769531 Z M 258.75 123.769531 "/>
</g>
<g clip-path="url(#clip3)" clip-rule="nonzero">
<path style=" stroke:none;fill-rule:nonzero;fill:rgb(98.81897%,99.21875%,99.21875%);fill-opacity:1;" d="M 258.914062 118.09375 C 258.914062 118.09375 254.351562 85.234375 215.527344 89.246094 C 195.386719 92.601562 181.238281 107.996094 174.394531 118.398438 C 172.949219 111.949219 173.089844 103.957031 179.703125 100.453125 C 179.867188 100.363281 177.601562 96.382812 180.484375 100.074219 C 180.546875 100.152344 180.484375 100.074219 180.484375 100.074219 C 180.886719 99.894531 181.3125 99.734375 181.753906 99.585938 C 182.03125 99.496094 179.113281 95.78125 179.394531 95.867188 C 182.820312 96.910156 183.144531 99.195312 183.433594 99.132812 C 184.273438 98.953125 185.179688 98.820312 186.160156 98.742188 C 181.027344 90.789062 167.105469 88.175781 147.101562 102.636719 C 140.546875 108.824219 141.824219 117.90625 151.652344 126.058594 C 144.46875 124.542969 130.425781 118.136719 114.296875 127.140625 C 98.171875 136.148438 80.019531 154.152344 95.640625 176.53125 C 95.640625 176.53125 93.292969 172.101562 95.976562 165.769531 C 96.097656 165.484375 94.875 161.742188 95.023438 161.449219 C 95.160156 161.179688 96.765625 164.335938 96.925781 164.054688 C 97.40625 163.21875 97.515625 162.800781 98.238281 161.917969 C 98.414062 161.703125 96.5625 158.167969 97.230469 155.804688 C 97.328125 155.46875 99.4375 160.121094 99.691406 159.851562 C 102.496094 156.941406 106.214844 152.722656 112.589844 149.675781 C 112.863281 149.542969 112.660156 146.351562 112.9375 146.21875 C 113.261719 146.070312 114.175781 147.746094 114.175781 147.746094 C 113.304688 148.132812 115.269531 139.613281 115.226562 139.859375 C 114.996094 141.214844 116.476562 147.929688 116.945312 147.734375 C 119.25 146.777344 121.789062 145.824219 124.5625 144.886719 C 124.851562 144.789062 125.210938 142.152344 125.503906 142.054688 C 125.660156 142.007812 125.746094 144.492188 125.898438 144.441406 C 127.417969 143.945312 129.003906 143.453125 130.667969 142.964844 C 130.765625 142.933594 131.386719 138.421875 131.484375 138.390625 C 131.941406 138.257812 131.882812 142.609375 132.355469 142.476562 C 133.285156 142.214844 134.238281 141.949219 135.214844 141.691406 C 135.5625 141.582031 135.90625 141.484375 136.242188 141.390625 C 136.695312 141.265625 136.964844 134.179688 137.398438 134.082031 C 137.910156 133.964844 138.617188 141.289062 139.105469 141.207031 C 146.5 139.921875 151.429688 140.976562 154.699219 141.671875 C 149.300781 144.554688 120.179688 151.1875 111.179688 181.589844 C 106.601562 207.019531 115.546875 227.605469 126.097656 239.59375 C 126.039062 237.773438 125.820312 234.652344 126.363281 230.792969 C 126.429688 230.300781 122.210938 224.445312 122.292969 223.925781 C 122.371094 223.414062 127.152344 228.375 127.246094 227.84375 C 128.074219 222.992188 129.410156 217.101562 131.414062 210.59375 C 131.535156 210.203125 128.140625 206.261719 128.726562 205.335938 C 128.957031 204.96875 132.050781 208.589844 132.191406 208.167969 C 132.472656 207.308594 132.765625 206.441406 133.070312 205.5625 C 133.324219 204.824219 128.8125 199.414062 129.085938 198.664062 C 129.226562 198.28125 134.144531 202.566406 134.285156 202.183594 C 138.777344 190.191406 145.9375 177.457031 155.796875 164.941406 C 155.992188 164.691406 151.253906 155.199219 151.769531 153.984375 C 151.945312 154.714844 157.863281 162.433594 158.550781 161.816406 C 161.457031 159.203125 163.402344 156.746094 165.546875 154.6875 C 165.980469 154.269531 162.859375 147.507812 164.152344 147.019531 C 165.136719 148.539062 168.347656 152.949219 168.8125 152.527344 C 176.300781 145.714844 177.628906 144.804688 199.570312 146.703125 C 200.0625 146.78125 200.675781 139.53125 201.222656 139.613281 C 202.414062 139.800781 202.902344 146.113281 203.636719 147.101562 C 209.535156 148.066406 217.410156 149.527344 226.320312 151.992188 C 226.609375 152.070312 228.265625 146.097656 228.265625 146.097656 C 228.726562 146.261719 228.601562 152.792969 228.855469 152.863281 C 229.132812 152.941406 231.902344 154.171875 232.179688 154.25 C 233.597656 154.667969 232.667969 144.125 233.539062 141.632812 C 235.164062 143.449219 236.738281 155.957031 236.738281 155.957031 C 246.03125 159.203125 257.199219 163.871094 266.84375 169.863281 C 267.996094 170.582031 270.253906 161.027344 269.621094 171.277344 C 269.582031 171.894531 270.730469 172.863281 271.242188 173.214844 C 271.816406 173.613281 272.855469 162.5 273.09375 163.164062 C 275.082031 168.664062 273.945312 175.28125 274.503906 175.695312 C 274.984375 176.050781 275.09375 175.988281 275.570312 176.351562 C 279.714844 180.992188 284.691406 185.503906 284.691406 185.503906 C 284.691406 185.503906 287.09375 156.960938 259.882812 133.679688 C 232.675781 110.398438 185.710938 130.011719 185.710938 130.011719 C 185.710938 130.011719 189.910156 124.144531 198.519531 118.617188 C 198.949219 118.339844 196.875 117.304688 197.328125 117.03125 C 197.558594 116.894531 198.34375 117.28125 198.585938 117.144531 C 198.695312 117.078125 195.675781 114.421875 196.285156 114.578125 C 199.496094 115.402344 201.09375 117.050781 201.199219 116.992188 C 208.617188 112.757812 220.8125 108.972656 231.691406 109 C 232.234375 109 225.632812 100.535156 226.128906 100.777344 C 233.527344 104.378906 234.472656 109.027344 235.046875 109.050781 C 237.480469 109.140625 240.003906 109.363281 242.628906 109.722656 C 243.484375 109.910156 244.28125 110.085938 245.035156 110.257812 C 245.566406 110.378906 245.023438 107.910156 245.507812 108.03125 C 245.742188 108.089844 247.03125 110.742188 247.261719 110.804688 C 248.210938 111.050781 249.082031 111.308594 249.902344 111.597656 C 250.269531 111.730469 248.734375 106.96875 249.023438 107.210938 C 252 109.683594 252.300781 112.609375 252.9375 112.96875 C 254.882812 114.082031 256.703125 115.644531 258.914062 118.09375 Z M 258.914062 118.09375 "/>
</g>
</g>
</svg>
